<mxfile host="Electron" modified="2023-08-06T14:49:59.504Z" agent="Mozilla/5.0 (Windows NT 10.0; Win64; x64) AppleWebKit/537.36 (KHTML, like Gecko) draw.io/21.6.5 Chrome/114.0.5735.243 Electron/25.3.1 Safari/537.36" etag="vs6N1FiyLMXTTKBXp6YO" version="21.6.5" type="device">
  <diagram id="C5RBs43oDa-KdzZeNtuy" name="Page-1">
    <mxGraphModel dx="1120" dy="524" grid="1" gridSize="10" guides="1" tooltips="1" connect="1" arrows="1" fold="1" page="1" pageScale="1" pageWidth="827" pageHeight="1169" math="0" shadow="0">
      <root>
        <mxCell id="WIyWlLk6GJQsqaUBKTNV-0" />
        <mxCell id="WIyWlLk6GJQsqaUBKTNV-1" parent="WIyWlLk6GJQsqaUBKTNV-0" />
        <mxCell id="k8llUayksxSRVJIJTIAX-0" value="&lt;font style=&quot;font-size: 11px;&quot;&gt;&lt;br&gt;&lt;span style=&quot;margin: 0px; padding: 0px; border: 0px; font-weight: 400; font-style: normal; font-family: &amp;quot;gg sans&amp;quot;, &amp;quot;Noto Sans&amp;quot;, &amp;quot;Helvetica Neue&amp;quot;, Helvetica, Arial, sans-serif; vertical-align: baseline; outline: 0px; color: rgb(219, 222, 225); font-variant-ligatures: normal; font-variant-caps: normal; letter-spacing: normal; orphans: 2; text-align: left; text-indent: 0px; text-transform: none; widows: 2; word-spacing: 0px; -webkit-text-stroke-width: 0px; background-color: rgba(2, 2, 2, 0.06); text-decoration-thickness: initial; text-decoration-style: initial; text-decoration-color: initial;&quot;&gt;You and friends where going to hotel &lt;/span&gt;&lt;span style=&quot;margin: 0px; padding: 0px; border: 0px; font-weight: 400; font-style: normal; font-family: &amp;quot;gg sans&amp;quot;, &amp;quot;Noto Sans&amp;quot;, &amp;quot;Helvetica Neue&amp;quot;, Helvetica, Arial, sans-serif; vertical-align: baseline; outline: 0px; color: rgb(219, 222, 225); font-variant-ligatures: normal; font-variant-caps: normal; letter-spacing: normal; orphans: 2; text-align: left; text-indent: 0px; text-transform: none; widows: 2; word-spacing: 0px; -webkit-text-stroke-width: 0px; background-color: rgba(2, 2, 2, 0.06); text-decoration-thickness: initial; text-decoration-style: initial; text-decoration-color: initial;&quot;&gt;. the hotel has Ac and non&lt;/span&gt;&lt;span style=&quot;margin: 0px; padding: 0px; border: 0px; font-weight: 400; font-style: normal; font-family: &amp;quot;gg sans&amp;quot;, &amp;quot;Noto Sans&amp;quot;, &amp;quot;Helvetica Neue&amp;quot;, Helvetica, Arial, sans-serif; vertical-align: baseline; outline: 0px; color: rgb(219, 222, 225); font-variant-ligatures: normal; font-variant-caps: normal; letter-spacing: normal; orphans: 2; text-align: left; text-indent: 0px; text-transform: none; widows: 2; word-spacing: 0px; -webkit-text-stroke-width: 0px; background-color: rgba(2, 2, 2, 0.06); text-decoration-thickness: initial; text-decoration-style: initial; text-decoration-color: initial;&quot;&gt;-Ac &lt;/span&gt;&lt;span style=&quot;margin: 0px; padding: 0px; border: 0px; font-weight: 400; font-style: normal; font-family: &amp;quot;gg sans&amp;quot;, &amp;quot;Noto Sans&amp;quot;, &amp;quot;Helvetica Neue&amp;quot;, Helvetica, Arial, sans-serif; vertical-align: baseline; outline: 0px; color: rgb(219, 222, 225); font-variant-ligatures: normal; font-variant-caps: normal; letter-spacing: normal; orphans: 2; text-align: left; text-indent: 0px; text-transform: none; widows: 2; word-spacing: 0px; -webkit-text-stroke-width: 0px; background-color: rgba(2, 2, 2, 0.06); text-decoration-thickness: initial; text-decoration-style: initial; text-decoration-color: initial;&quot;&gt;. if they select Ac they extra to pay &lt;/span&gt;&lt;span style=&quot;margin: 0px; padding: 0px; border: 0px; font-weight: 400; font-style: normal; font-family: &amp;quot;gg sans&amp;quot;, &amp;quot;Noto Sans&amp;quot;, &amp;quot;Helvetica Neue&amp;quot;, Helvetica, Arial, sans-serif; vertical-align: baseline; outline: 0px; color: rgb(219, 222, 225); font-variant-ligatures: normal; font-variant-caps: normal; letter-spacing: normal; orphans: 2; text-align: left; text-indent: 0px; text-transform: none; widows: 2; word-spacing: 0px; -webkit-text-stroke-width: 0px; background-color: rgba(2, 2, 2, 0.06); text-decoration-thickness: initial; text-decoration-style: initial; text-decoration-color: initial;&quot;&gt;(10rs per head &lt;/span&gt;&lt;span style=&quot;margin: 0px; padding: 0px; border: 0px; font-weight: 400; font-style: normal; font-family: &amp;quot;gg sans&amp;quot;, &amp;quot;Noto Sans&amp;quot;, &amp;quot;Helvetica Neue&amp;quot;, Helvetica, Arial, sans-serif; vertical-align: baseline; outline: 0px; color: rgb(219, 222, 225); font-variant-ligatures: normal; font-variant-caps: normal; letter-spacing: normal; orphans: 2; text-align: left; text-indent: 0px; text-transform: none; widows: 2; word-spacing: 0px; -webkit-text-stroke-width: 0px; background-color: rgba(2, 2, 2, 0.06); text-decoration-thickness: initial; text-decoration-style: initial; text-decoration-color: initial;&quot;&gt;) with bill amount &lt;/span&gt;&lt;span style=&quot;margin: 0px; padding: 0px; border: 0px; font-weight: 400; font-style: normal; font-family: &amp;quot;gg sans&amp;quot;, &amp;quot;Noto Sans&amp;quot;, &amp;quot;Helvetica Neue&amp;quot;, Helvetica, Arial, sans-serif; vertical-align: baseline; outline: 0px; color: rgb(219, 222, 225); font-variant-ligatures: normal; font-variant-caps: normal; letter-spacing: normal; orphans: 2; text-align: left; text-indent: 0px; text-transform: none; widows: 2; word-spacing: 0px; -webkit-text-stroke-width: 0px; background-color: rgba(2, 2, 2, 0.06); text-decoration-thickness: initial; text-decoration-style: initial; text-decoration-color: initial;&quot;&gt;.waiter to ask ordered the food&lt;/span&gt;&lt;span style=&quot;margin: 0px; padding: 0px; border: 0px; font-weight: 400; font-style: normal; font-family: &amp;quot;gg sans&amp;quot;, &amp;quot;Noto Sans&amp;quot;, &amp;quot;Helvetica Neue&amp;quot;, Helvetica, Arial, sans-serif; vertical-align: baseline; outline: 0px; color: rgb(219, 222, 225); font-variant-ligatures: normal; font-variant-caps: normal; letter-spacing: normal; orphans: 2; text-align: left; text-indent: 0px; text-transform: none; widows: 2; word-spacing: 0px; -webkit-text-stroke-width: 0px; background-color: rgba(2, 2, 2, 0.06); text-decoration-thickness: initial; text-decoration-style: initial; text-decoration-color: initial;&quot;&gt;, Noodel rate is 120 and Friedrice rate is 180&lt;/span&gt;&lt;span style=&quot;margin: 0px; padding: 0px; border: 0px; font-weight: 400; font-style: normal; font-family: &amp;quot;gg sans&amp;quot;, &amp;quot;Noto Sans&amp;quot;, &amp;quot;Helvetica Neue&amp;quot;, Helvetica, Arial, sans-serif; vertical-align: baseline; outline: 0px; color: rgb(219, 222, 225); font-variant-ligatures: normal; font-variant-caps: normal; letter-spacing: normal; orphans: 2; text-align: left; text-indent: 0px; text-transform: none; widows: 2; word-spacing: 0px; -webkit-text-stroke-width: 0px; background-color: rgba(2, 2, 2, 0.06); text-decoration-thickness: initial; text-decoration-style: initial; text-decoration-color: initial;&quot;&gt;,Fried Chicken rate is 150 &lt;/span&gt;&lt;span style=&quot;margin: 0px; padding: 0px; border: 0px; font-weight: 400; font-style: normal; font-family: &amp;quot;gg sans&amp;quot;, &amp;quot;Noto Sans&amp;quot;, &amp;quot;Helvetica Neue&amp;quot;, Helvetica, Arial, sans-serif; vertical-align: baseline; outline: 0px; color: rgb(219, 222, 225); font-variant-ligatures: normal; font-variant-caps: normal; letter-spacing: normal; orphans: 2; text-align: left; text-indent: 0px; text-transform: none; widows: 2; word-spacing: 0px; -webkit-text-stroke-width: 0px; background-color: rgba(2, 2, 2, 0.06); text-decoration-thickness: initial; text-decoration-style: initial; text-decoration-color: initial;&quot;&gt;, softdrink rate is 60 &lt;/span&gt;&lt;span style=&quot;margin: 0px; padding: 0px; border: 0px; font-weight: 400; font-style: normal; font-family: &amp;quot;gg sans&amp;quot;, &amp;quot;Noto Sans&amp;quot;, &amp;quot;Helvetica Neue&amp;quot;, Helvetica, Arial, sans-serif; vertical-align: baseline; outline: 0px; color: rgb(219, 222, 225); font-variant-ligatures: normal; font-variant-caps: normal; letter-spacing: normal; orphans: 2; text-align: left; text-indent: 0px; text-transform: none; widows: 2; word-spacing: 0px; -webkit-text-stroke-width: 0px; background-color: rgba(2, 2, 2, 0.06); text-decoration-thickness: initial; text-decoration-style: initial; text-decoration-color: initial;&quot;&gt;,Note the order &lt;/span&gt;&lt;span style=&quot;margin: 0px; padding: 0px; border: 0px; font-weight: 400; font-style: normal; font-family: &amp;quot;gg sans&amp;quot;, &amp;quot;Noto Sans&amp;quot;, &amp;quot;Helvetica Neue&amp;quot;, Helvetica, Arial, sans-serif; vertical-align: baseline; outline: 0px; color: rgb(219, 222, 225); font-variant-ligatures: normal; font-variant-caps: normal; letter-spacing: normal; orphans: 2; text-align: left; text-indent: 0px; text-transform: none; widows: 2; word-spacing: 0px; -webkit-text-stroke-width: 0px; background-color: rgba(2, 2, 2, 0.06); text-decoration-thickness: initial; text-decoration-style: initial; text-decoration-color: initial;&quot;&gt;.&lt;/span&gt;&lt;span style=&quot;margin: 0px; padding: 0px; border: 0px; font-weight: 400; font-style: normal; font-family: &amp;quot;gg sans&amp;quot;, &amp;quot;Noto Sans&amp;quot;, &amp;quot;Helvetica Neue&amp;quot;, Helvetica, Arial, sans-serif; vertical-align: baseline; outline: 0px; color: rgb(219, 222, 225); font-variant-ligatures: normal; font-variant-caps: normal; letter-spacing: normal; orphans: 2; text-align: left; text-indent: 0px; text-transform: none; widows: 2; word-spacing: 0px; -webkit-text-stroke-width: 0px; background-color: rgba(2, 2, 2, 0.06); text-decoration-thickness: initial; text-decoration-style: initial; text-decoration-color: initial;&quot;&gt;&lt;br&gt;&lt;br&gt;if they wants to order Combo offer means they will 3 types of fastfood&lt;/span&gt;&lt;span style=&quot;margin: 0px; padding: 0px; border: 0px; font-weight: 400; font-style: normal; font-family: &amp;quot;gg sans&amp;quot;, &amp;quot;Noto Sans&amp;quot;, &amp;quot;Helvetica Neue&amp;quot;, Helvetica, Arial, sans-serif; vertical-align: baseline; outline: 0px; color: rgb(219, 222, 225); font-variant-ligatures: normal; font-variant-caps: normal; letter-spacing: normal; orphans: 2; text-align: left; text-indent: 0px; text-transform: none; widows: 2; word-spacing: 0px; -webkit-text-stroke-width: 0px; background-color: rgba(2, 2, 2, 0.06); text-decoration-thickness: initial; text-decoration-style: initial; text-decoration-color: initial;&quot;&gt;(Noodel&lt;/span&gt;&lt;span style=&quot;margin: 0px; padding: 0px; border: 0px; font-weight: 400; font-style: normal; font-family: &amp;quot;gg sans&amp;quot;, &amp;quot;Noto Sans&amp;quot;, &amp;quot;Helvetica Neue&amp;quot;, Helvetica, Arial, sans-serif; vertical-align: baseline; outline: 0px; color: rgb(219, 222, 225); font-variant-ligatures: normal; font-variant-caps: normal; letter-spacing: normal; orphans: 2; text-align: left; text-indent: 0px; text-transform: none; widows: 2; word-spacing: 0px; -webkit-text-stroke-width: 0px; background-color: rgba(2, 2, 2, 0.06); text-decoration-thickness: initial; text-decoration-style: initial; text-decoration-color: initial;&quot;&gt;,Friedrice&lt;/span&gt;&lt;span style=&quot;margin: 0px; padding: 0px; border: 0px; font-weight: 400; font-style: normal; font-family: &amp;quot;gg sans&amp;quot;, &amp;quot;Noto Sans&amp;quot;, &amp;quot;Helvetica Neue&amp;quot;, Helvetica, Arial, sans-serif; vertical-align: baseline; outline: 0px; color: rgb(219, 222, 225); font-variant-ligatures: normal; font-variant-caps: normal; letter-spacing: normal; orphans: 2; text-align: left; text-indent: 0px; text-transform: none; widows: 2; word-spacing: 0px; -webkit-text-stroke-width: 0px; background-color: rgba(2, 2, 2, 0.06); text-decoration-thickness: initial; text-decoration-style: initial; text-decoration-color: initial;&quot;&gt;,FriedChicken&lt;/span&gt;&lt;span style=&quot;margin: 0px; padding: 0px; border: 0px; font-weight: 400; font-style: normal; font-family: &amp;quot;gg sans&amp;quot;, &amp;quot;Noto Sans&amp;quot;, &amp;quot;Helvetica Neue&amp;quot;, Helvetica, Arial, sans-serif; vertical-align: baseline; outline: 0px; color: rgb(219, 222, 225); font-variant-ligatures: normal; font-variant-caps: normal; letter-spacing: normal; orphans: 2; text-align: left; text-indent: 0px; text-transform: none; widows: 2; word-spacing: 0px; -webkit-text-stroke-width: 0px; background-color: rgba(2, 2, 2, 0.06); text-decoration-thickness: initial; text-decoration-style: initial; text-decoration-color: initial;&quot;&gt;) and 1 softdrinks&lt;/span&gt;&lt;span style=&quot;margin: 0px; padding: 0px; border: 0px; font-weight: 400; font-style: normal; font-family: &amp;quot;gg sans&amp;quot;, &amp;quot;Noto Sans&amp;quot;, &amp;quot;Helvetica Neue&amp;quot;, Helvetica, Arial, sans-serif; vertical-align: baseline; outline: 0px; color: rgb(219, 222, 225); font-variant-ligatures: normal; font-variant-caps: normal; letter-spacing: normal; orphans: 2; text-align: left; text-indent: 0px; text-transform: none; widows: 2; word-spacing: 0px; -webkit-text-stroke-width: 0px; background-color: rgba(2, 2, 2, 0.06); text-decoration-thickness: initial; text-decoration-style: initial; text-decoration-color: initial;&quot;&gt;(as your wish&lt;/span&gt;&lt;span style=&quot;margin: 0px; padding: 0px; border: 0px; font-weight: 400; font-style: normal; font-family: &amp;quot;gg sans&amp;quot;, &amp;quot;Noto Sans&amp;quot;, &amp;quot;Helvetica Neue&amp;quot;, Helvetica, Arial, sans-serif; vertical-align: baseline; outline: 0px; color: rgb(219, 222, 225); font-variant-ligatures: normal; font-variant-caps: normal; letter-spacing: normal; orphans: 2; text-align: left; text-indent: 0px; text-transform: none; widows: 2; word-spacing: 0px; -webkit-text-stroke-width: 0px; background-color: rgba(2, 2, 2, 0.06); text-decoration-thickness: initial; text-decoration-style: initial; text-decoration-color: initial;&quot;&gt;) at 30&lt;/span&gt;&lt;span style=&quot;margin: 0px; padding: 0px; border: 0px; font-weight: 400; font-style: normal; font-family: &amp;quot;gg sans&amp;quot;, &amp;quot;Noto Sans&amp;quot;, &amp;quot;Helvetica Neue&amp;quot;, Helvetica, Arial, sans-serif; vertical-align: baseline; outline: 0px; color: rgb(219, 222, 225); font-variant-ligatures: normal; font-variant-caps: normal; letter-spacing: normal; orphans: 2; text-align: left; text-indent: 0px; text-transform: none; widows: 2; word-spacing: 0px; -webkit-text-stroke-width: 0px; background-color: rgba(2, 2, 2, 0.06); text-decoration-thickness: initial; text-decoration-style: initial; text-decoration-color: initial;&quot;&gt;% offer in bill amount&lt;/span&gt;&lt;span style=&quot;margin: 0px; padding: 0px; border: 0px; font-weight: 400; font-style: normal; font-family: &amp;quot;gg sans&amp;quot;, &amp;quot;Noto Sans&amp;quot;, &amp;quot;Helvetica Neue&amp;quot;, Helvetica, Arial, sans-serif; vertical-align: baseline; outline: 0px; color: rgb(219, 222, 225); font-variant-ligatures: normal; font-variant-caps: normal; letter-spacing: normal; orphans: 2; text-align: left; text-indent: 0px; text-transform: none; widows: 2; word-spacing: 0px; -webkit-text-stroke-width: 0px; background-color: rgba(2, 2, 2, 0.06); text-decoration-thickness: initial; text-decoration-style: initial; text-decoration-color: initial;&quot;&gt;.&lt;/span&gt;&lt;span style=&quot;margin: 0px; padding: 0px; border: 0px; font-weight: 400; font-style: normal; font-family: &amp;quot;gg sans&amp;quot;, &amp;quot;Noto Sans&amp;quot;, &amp;quot;Helvetica Neue&amp;quot;, Helvetica, Arial, sans-serif; vertical-align: baseline; outline: 0px; color: rgb(219, 222, 225); font-variant-ligatures: normal; font-variant-caps: normal; letter-spacing: normal; orphans: 2; text-align: left; text-indent: 0px; text-transform: none; widows: 2; word-spacing: 0px; -webkit-text-stroke-width: 0px; background-color: rgba(2, 2, 2, 0.06); text-decoration-thickness: initial; text-decoration-style: initial; text-decoration-color: initial;&quot;&gt;&lt;br&gt;&lt;br&gt;if bill amount is &lt;/span&gt;&lt;span style=&quot;margin: 0px; padding: 0px; border: 0px; font-weight: 400; font-style: normal; font-family: &amp;quot;gg sans&amp;quot;, &amp;quot;Noto Sans&amp;quot;, &amp;quot;Helvetica Neue&amp;quot;, Helvetica, Arial, sans-serif; vertical-align: baseline; outline: 0px; color: rgb(219, 222, 225); font-variant-ligatures: normal; font-variant-caps: normal; letter-spacing: normal; orphans: 2; text-align: left; text-indent: 0px; text-transform: none; widows: 2; word-spacing: 0px; -webkit-text-stroke-width: 0px; background-color: rgba(2, 2, 2, 0.06); text-decoration-thickness: initial; text-decoration-style: initial; text-decoration-color: initial;&quot;&gt;&amp;gt;2000Rs&lt;/span&gt;&lt;span style=&quot;margin: 0px; padding: 0px; border: 0px; font-weight: 400; font-style: normal; font-family: &amp;quot;gg sans&amp;quot;, &amp;quot;Noto Sans&amp;quot;, &amp;quot;Helvetica Neue&amp;quot;, Helvetica, Arial, sans-serif; vertical-align: baseline; outline: 0px; color: rgb(219, 222, 225); font-variant-ligatures: normal; font-variant-caps: normal; letter-spacing: normal; orphans: 2; text-align: left; text-indent: 0px; text-transform: none; widows: 2; word-spacing: 0px; -webkit-text-stroke-width: 0px; background-color: rgba(2, 2, 2, 0.06); text-decoration-thickness: initial; text-decoration-style: initial; text-decoration-color: initial;&quot;&gt;. they will get an discound coupons and use the coupon to reduce bill amount &lt;/span&gt;&lt;span style=&quot;margin: 0px; padding: 0px; border: 0px; font-weight: 400; font-style: normal; font-family: &amp;quot;gg sans&amp;quot;, &amp;quot;Noto Sans&amp;quot;, &amp;quot;Helvetica Neue&amp;quot;, Helvetica, Arial, sans-serif; vertical-align: baseline; outline: 0px; color: rgb(219, 222, 225); font-variant-ligatures: normal; font-variant-caps: normal; letter-spacing: normal; orphans: 2; text-align: left; text-indent: 0px; text-transform: none; widows: 2; word-spacing: 0px; -webkit-text-stroke-width: 0px; background-color: rgba(2, 2, 2, 0.06); text-decoration-thickness: initial; text-decoration-style: initial; text-decoration-color: initial;&quot;&gt;.After paying the bill they go home&lt;/span&gt;&lt;br&gt;&lt;/font&gt;" style="text;whiteSpace=wrap;html=1;" parent="WIyWlLk6GJQsqaUBKTNV-1" vertex="1">
          <mxGeometry width="560" height="150" as="geometry" />
        </mxCell>
        <mxCell id="k8llUayksxSRVJIJTIAX-6" style="edgeStyle=orthogonalEdgeStyle;rounded=0;orthogonalLoop=1;jettySize=auto;html=1;exitX=0.5;exitY=1;exitDx=0;exitDy=0;entryX=0.5;entryY=0;entryDx=0;entryDy=0;" parent="WIyWlLk6GJQsqaUBKTNV-1" source="k8llUayksxSRVJIJTIAX-2" target="k8llUayksxSRVJIJTIAX-4" edge="1">
          <mxGeometry relative="1" as="geometry" />
        </mxCell>
        <mxCell id="k8llUayksxSRVJIJTIAX-2" value="you and your friends are going to the restaurant" style="ellipse;whiteSpace=wrap;html=1;" parent="WIyWlLk6GJQsqaUBKTNV-1" vertex="1">
          <mxGeometry x="324" y="190" width="180" height="80" as="geometry" />
        </mxCell>
        <mxCell id="k8llUayksxSRVJIJTIAX-8" style="edgeStyle=orthogonalEdgeStyle;rounded=0;orthogonalLoop=1;jettySize=auto;html=1;exitX=1;exitY=0.5;exitDx=0;exitDy=0;entryX=0;entryY=0.5;entryDx=0;entryDy=0;" parent="WIyWlLk6GJQsqaUBKTNV-1" source="k8llUayksxSRVJIJTIAX-3" target="k8llUayksxSRVJIJTIAX-5" edge="1">
          <mxGeometry relative="1" as="geometry" />
        </mxCell>
        <mxCell id="k8llUayksxSRVJIJTIAX-10" style="edgeStyle=orthogonalEdgeStyle;rounded=0;orthogonalLoop=1;jettySize=auto;html=1;exitX=0.5;exitY=1;exitDx=0;exitDy=0;entryX=0.5;entryY=0;entryDx=0;entryDy=0;" parent="WIyWlLk6GJQsqaUBKTNV-1" source="k8llUayksxSRVJIJTIAX-3" edge="1">
          <mxGeometry relative="1" as="geometry">
            <mxPoint x="414" y="525" as="targetPoint" />
          </mxGeometry>
        </mxCell>
        <mxCell id="k8llUayksxSRVJIJTIAX-3" value="do they select ac?" style="rhombus;whiteSpace=wrap;html=1;" parent="WIyWlLk6GJQsqaUBKTNV-1" vertex="1">
          <mxGeometry x="344" y="390" width="140" height="80" as="geometry" />
        </mxCell>
        <mxCell id="k8llUayksxSRVJIJTIAX-7" style="edgeStyle=orthogonalEdgeStyle;rounded=0;orthogonalLoop=1;jettySize=auto;html=1;exitX=0.5;exitY=1;exitDx=0;exitDy=0;entryX=0.5;entryY=0;entryDx=0;entryDy=0;" parent="WIyWlLk6GJQsqaUBKTNV-1" source="k8llUayksxSRVJIJTIAX-4" target="k8llUayksxSRVJIJTIAX-3" edge="1">
          <mxGeometry relative="1" as="geometry" />
        </mxCell>
        <mxCell id="k8llUayksxSRVJIJTIAX-4" value="number_of_persons= enter the number of person" style="rounded=1;whiteSpace=wrap;html=1;" parent="WIyWlLk6GJQsqaUBKTNV-1" vertex="1">
          <mxGeometry x="354" y="300" width="120" height="60" as="geometry" />
        </mxCell>
        <mxCell id="k8llUayksxSRVJIJTIAX-14" style="edgeStyle=orthogonalEdgeStyle;rounded=0;orthogonalLoop=1;jettySize=auto;html=1;exitX=0.5;exitY=1;exitDx=0;exitDy=0;entryX=1;entryY=0.5;entryDx=0;entryDy=0;" parent="WIyWlLk6GJQsqaUBKTNV-1" source="k8llUayksxSRVJIJTIAX-5" target="k8llUayksxSRVJIJTIAX-13" edge="1">
          <mxGeometry relative="1" as="geometry" />
        </mxCell>
        <mxCell id="k8llUayksxSRVJIJTIAX-5" value="total+= number_of_person*10" style="rounded=1;whiteSpace=wrap;html=1;" parent="WIyWlLk6GJQsqaUBKTNV-1" vertex="1">
          <mxGeometry x="560" y="400" width="120" height="60" as="geometry" />
        </mxCell>
        <mxCell id="k8llUayksxSRVJIJTIAX-20" style="edgeStyle=orthogonalEdgeStyle;rounded=0;orthogonalLoop=1;jettySize=auto;html=1;exitX=0.5;exitY=1;exitDx=0;exitDy=0;entryX=0.5;entryY=0;entryDx=0;entryDy=0;" parent="WIyWlLk6GJQsqaUBKTNV-1" source="k8llUayksxSRVJIJTIAX-12" edge="1">
          <mxGeometry relative="1" as="geometry">
            <mxPoint x="414" y="750" as="targetPoint" />
          </mxGeometry>
        </mxCell>
        <mxCell id="k8llUayksxSRVJIJTIAX-22" style="edgeStyle=orthogonalEdgeStyle;rounded=0;orthogonalLoop=1;jettySize=auto;html=1;exitX=1;exitY=0.5;exitDx=0;exitDy=0;entryX=0;entryY=0.5;entryDx=0;entryDy=0;" parent="WIyWlLk6GJQsqaUBKTNV-1" source="k8llUayksxSRVJIJTIAX-12" edge="1">
          <mxGeometry relative="1" as="geometry">
            <mxPoint x="610" y="670" as="targetPoint" />
          </mxGeometry>
        </mxCell>
        <mxCell id="k8llUayksxSRVJIJTIAX-12" value="do they select the combo offer?" style="rhombus;whiteSpace=wrap;html=1;" parent="WIyWlLk6GJQsqaUBKTNV-1" vertex="1">
          <mxGeometry x="349" y="630" width="130" height="80" as="geometry" />
        </mxCell>
        <mxCell id="k8llUayksxSRVJIJTIAX-15" style="edgeStyle=orthogonalEdgeStyle;rounded=0;orthogonalLoop=1;jettySize=auto;html=1;exitX=0.5;exitY=1;exitDx=0;exitDy=0;" parent="WIyWlLk6GJQsqaUBKTNV-1" source="k8llUayksxSRVJIJTIAX-13" target="k8llUayksxSRVJIJTIAX-12" edge="1">
          <mxGeometry relative="1" as="geometry" />
        </mxCell>
        <mxCell id="k8llUayksxSRVJIJTIAX-13" value="order the food" style="rounded=1;whiteSpace=wrap;html=1;" parent="WIyWlLk6GJQsqaUBKTNV-1" vertex="1">
          <mxGeometry x="354" y="525" width="120" height="60" as="geometry" />
        </mxCell>
        <mxCell id="k8llUayksxSRVJIJTIAX-16" value="yes" style="text;html=1;strokeColor=none;fillColor=none;align=center;verticalAlign=middle;whiteSpace=wrap;rounded=0;" parent="WIyWlLk6GJQsqaUBKTNV-1" vertex="1">
          <mxGeometry x="479" y="400" width="60" height="30" as="geometry" />
        </mxCell>
        <mxCell id="k8llUayksxSRVJIJTIAX-17" value="no" style="text;html=1;strokeColor=none;fillColor=none;align=center;verticalAlign=middle;whiteSpace=wrap;rounded=0;" parent="WIyWlLk6GJQsqaUBKTNV-1" vertex="1">
          <mxGeometry x="344" y="480" width="60" height="30" as="geometry" />
        </mxCell>
        <mxCell id="k8llUayksxSRVJIJTIAX-23" value="no" style="text;html=1;strokeColor=none;fillColor=none;align=center;verticalAlign=middle;whiteSpace=wrap;rounded=0;" parent="WIyWlLk6GJQsqaUBKTNV-1" vertex="1">
          <mxGeometry x="510" y="640" width="60" height="30" as="geometry" />
        </mxCell>
        <mxCell id="k8llUayksxSRVJIJTIAX-24" value="yes" style="text;html=1;strokeColor=none;fillColor=none;align=center;verticalAlign=middle;whiteSpace=wrap;rounded=0;" parent="WIyWlLk6GJQsqaUBKTNV-1" vertex="1">
          <mxGeometry x="342" y="710" width="60" height="30" as="geometry" />
        </mxCell>
        <mxCell id="VLeO9XLquMEbQgtOTkbF-3" style="edgeStyle=orthogonalEdgeStyle;rounded=0;orthogonalLoop=1;jettySize=auto;html=1;exitX=0.5;exitY=1;exitDx=0;exitDy=0;entryX=0.575;entryY=0;entryDx=0;entryDy=0;entryPerimeter=0;" edge="1" parent="WIyWlLk6GJQsqaUBKTNV-1" source="k8llUayksxSRVJIJTIAX-25" target="VLeO9XLquMEbQgtOTkbF-2">
          <mxGeometry relative="1" as="geometry" />
        </mxCell>
        <mxCell id="VLeO9XLquMEbQgtOTkbF-8" style="edgeStyle=orthogonalEdgeStyle;rounded=0;orthogonalLoop=1;jettySize=auto;html=1;exitX=1;exitY=0.5;exitDx=0;exitDy=0;entryX=0.5;entryY=0;entryDx=0;entryDy=0;" edge="1" parent="WIyWlLk6GJQsqaUBKTNV-1" source="k8llUayksxSRVJIJTIAX-25" target="VLeO9XLquMEbQgtOTkbF-7">
          <mxGeometry relative="1" as="geometry" />
        </mxCell>
        <mxCell id="k8llUayksxSRVJIJTIAX-25" value="do they&amp;nbsp; order soft drink?" style="rhombus;whiteSpace=wrap;html=1;" parent="WIyWlLk6GJQsqaUBKTNV-1" vertex="1">
          <mxGeometry x="350" y="750" width="130" height="80" as="geometry" />
        </mxCell>
        <mxCell id="k8llUayksxSRVJIJTIAX-32" style="edgeStyle=orthogonalEdgeStyle;rounded=0;orthogonalLoop=1;jettySize=auto;html=1;exitX=0.5;exitY=1;exitDx=0;exitDy=0;entryX=0.5;entryY=0;entryDx=0;entryDy=0;" parent="WIyWlLk6GJQsqaUBKTNV-1" source="k8llUayksxSRVJIJTIAX-26" target="k8llUayksxSRVJIJTIAX-31" edge="1">
          <mxGeometry relative="1" as="geometry" />
        </mxCell>
        <mxCell id="k8llUayksxSRVJIJTIAX-26" value="total=total+food_ordered+ softdrinks_ordered" style="rounded=1;whiteSpace=wrap;html=1;" parent="WIyWlLk6GJQsqaUBKTNV-1" vertex="1">
          <mxGeometry x="346.5" y="910" width="135" height="60" as="geometry" />
        </mxCell>
        <mxCell id="bc9mQR_PdEr3sN50CIzt-11" style="edgeStyle=orthogonalEdgeStyle;rounded=0;orthogonalLoop=1;jettySize=auto;html=1;exitX=0.5;exitY=1;exitDx=0;exitDy=0;entryX=0;entryY=0;entryDx=0;entryDy=0;" parent="WIyWlLk6GJQsqaUBKTNV-1" source="k8llUayksxSRVJIJTIAX-31" target="bc9mQR_PdEr3sN50CIzt-6" edge="1">
          <mxGeometry relative="1" as="geometry" />
        </mxCell>
        <mxCell id="k8llUayksxSRVJIJTIAX-31" value="total=total*(30/100)" style="rounded=1;whiteSpace=wrap;html=1;" parent="WIyWlLk6GJQsqaUBKTNV-1" vertex="1">
          <mxGeometry x="355" y="990" width="120" height="60" as="geometry" />
        </mxCell>
        <mxCell id="bc9mQR_PdEr3sN50CIzt-20" style="edgeStyle=orthogonalEdgeStyle;rounded=0;orthogonalLoop=1;jettySize=auto;html=1;exitX=0.5;exitY=1;exitDx=0;exitDy=0;entryX=1;entryY=0.5;entryDx=0;entryDy=0;" parent="WIyWlLk6GJQsqaUBKTNV-1" source="bc9mQR_PdEr3sN50CIzt-0" target="k8llUayksxSRVJIJTIAX-31" edge="1">
          <mxGeometry relative="1" as="geometry" />
        </mxCell>
        <mxCell id="bc9mQR_PdEr3sN50CIzt-0" value="total=total+food_ordered&amp;nbsp;" style="rounded=1;whiteSpace=wrap;html=1;" parent="WIyWlLk6GJQsqaUBKTNV-1" vertex="1">
          <mxGeometry x="539" y="900" width="130" height="60" as="geometry" />
        </mxCell>
        <mxCell id="bc9mQR_PdEr3sN50CIzt-5" value="no" style="text;html=1;strokeColor=none;fillColor=none;align=center;verticalAlign=middle;whiteSpace=wrap;rounded=0;" parent="WIyWlLk6GJQsqaUBKTNV-1" vertex="1">
          <mxGeometry x="490" y="760" width="60" height="30" as="geometry" />
        </mxCell>
        <mxCell id="bc9mQR_PdEr3sN50CIzt-16" style="edgeStyle=orthogonalEdgeStyle;rounded=0;orthogonalLoop=1;jettySize=auto;html=1;exitX=0;exitY=0.5;exitDx=0;exitDy=0;entryX=1;entryY=0.5;entryDx=0;entryDy=0;" parent="WIyWlLk6GJQsqaUBKTNV-1" source="bc9mQR_PdEr3sN50CIzt-6" target="bc9mQR_PdEr3sN50CIzt-14" edge="1">
          <mxGeometry relative="1" as="geometry" />
        </mxCell>
        <mxCell id="bc9mQR_PdEr3sN50CIzt-17" style="edgeStyle=orthogonalEdgeStyle;rounded=0;orthogonalLoop=1;jettySize=auto;html=1;exitX=1;exitY=0.5;exitDx=0;exitDy=0;entryX=0;entryY=0.5;entryDx=0;entryDy=0;" parent="WIyWlLk6GJQsqaUBKTNV-1" source="bc9mQR_PdEr3sN50CIzt-6" target="bc9mQR_PdEr3sN50CIzt-13" edge="1">
          <mxGeometry relative="1" as="geometry" />
        </mxCell>
        <mxCell id="bc9mQR_PdEr3sN50CIzt-6" value="if total &amp;gt; 2000" style="rhombus;whiteSpace=wrap;html=1;" parent="WIyWlLk6GJQsqaUBKTNV-1" vertex="1">
          <mxGeometry x="464.5" y="1070" width="111" height="80" as="geometry" />
        </mxCell>
        <mxCell id="bc9mQR_PdEr3sN50CIzt-13" value="they got a discount coupon" style="rounded=1;whiteSpace=wrap;html=1;" parent="WIyWlLk6GJQsqaUBKTNV-1" vertex="1">
          <mxGeometry x="640" y="1080" width="120" height="60" as="geometry" />
        </mxCell>
        <mxCell id="bc9mQR_PdEr3sN50CIzt-25" style="edgeStyle=orthogonalEdgeStyle;rounded=0;orthogonalLoop=1;jettySize=auto;html=1;exitX=0.5;exitY=1;exitDx=0;exitDy=0;entryX=0;entryY=0.5;entryDx=0;entryDy=0;" parent="WIyWlLk6GJQsqaUBKTNV-1" source="bc9mQR_PdEr3sN50CIzt-14" target="bc9mQR_PdEr3sN50CIzt-22" edge="1">
          <mxGeometry relative="1" as="geometry" />
        </mxCell>
        <mxCell id="bc9mQR_PdEr3sN50CIzt-14" value="no discount coupon" style="rounded=1;whiteSpace=wrap;html=1;" parent="WIyWlLk6GJQsqaUBKTNV-1" vertex="1">
          <mxGeometry x="270" y="1080" width="120" height="60" as="geometry" />
        </mxCell>
        <mxCell id="bc9mQR_PdEr3sN50CIzt-24" style="edgeStyle=orthogonalEdgeStyle;rounded=0;orthogonalLoop=1;jettySize=auto;html=1;exitX=0.5;exitY=1;exitDx=0;exitDy=0;entryX=0.5;entryY=0;entryDx=0;entryDy=0;" parent="WIyWlLk6GJQsqaUBKTNV-1" source="bc9mQR_PdEr3sN50CIzt-22" target="bc9mQR_PdEr3sN50CIzt-23" edge="1">
          <mxGeometry relative="1" as="geometry" />
        </mxCell>
        <mxCell id="bc9mQR_PdEr3sN50CIzt-22" value="pay the bill" style="rounded=1;whiteSpace=wrap;html=1;" parent="WIyWlLk6GJQsqaUBKTNV-1" vertex="1">
          <mxGeometry x="460" y="1169" width="120" height="60" as="geometry" />
        </mxCell>
        <mxCell id="bc9mQR_PdEr3sN50CIzt-23" value="go home" style="ellipse;whiteSpace=wrap;html=1;" parent="WIyWlLk6GJQsqaUBKTNV-1" vertex="1">
          <mxGeometry x="460" y="1260" width="120" height="80" as="geometry" />
        </mxCell>
        <mxCell id="bc9mQR_PdEr3sN50CIzt-29" style="edgeStyle=orthogonalEdgeStyle;rounded=0;orthogonalLoop=1;jettySize=auto;html=1;exitX=0;exitY=0.5;exitDx=0;exitDy=0;entryX=1;entryY=0.5;entryDx=0;entryDy=0;" parent="WIyWlLk6GJQsqaUBKTNV-1" source="bc9mQR_PdEr3sN50CIzt-27" target="bc9mQR_PdEr3sN50CIzt-22" edge="1">
          <mxGeometry relative="1" as="geometry" />
        </mxCell>
        <mxCell id="bc9mQR_PdEr3sN50CIzt-27" value="total=total-coupon" style="rounded=1;whiteSpace=wrap;html=1;" parent="WIyWlLk6GJQsqaUBKTNV-1" vertex="1">
          <mxGeometry x="640" y="1169" width="120" height="60" as="geometry" />
        </mxCell>
        <mxCell id="VLeO9XLquMEbQgtOTkbF-5" style="edgeStyle=orthogonalEdgeStyle;rounded=0;orthogonalLoop=1;jettySize=auto;html=1;exitX=1;exitY=0.5;exitDx=0;exitDy=0;entryX=0.6;entryY=-0.033;entryDx=0;entryDy=0;entryPerimeter=0;" edge="1" parent="WIyWlLk6GJQsqaUBKTNV-1" source="VLeO9XLquMEbQgtOTkbF-0" target="VLeO9XLquMEbQgtOTkbF-1">
          <mxGeometry relative="1" as="geometry" />
        </mxCell>
        <mxCell id="VLeO9XLquMEbQgtOTkbF-0" value="food=noodles 120 and fried chichen 150 and fried rice 180" style="rounded=1;whiteSpace=wrap;html=1;" vertex="1" parent="WIyWlLk6GJQsqaUBKTNV-1">
          <mxGeometry x="610" y="640" width="120" height="60" as="geometry" />
        </mxCell>
        <mxCell id="VLeO9XLquMEbQgtOTkbF-6" style="edgeStyle=orthogonalEdgeStyle;rounded=0;orthogonalLoop=1;jettySize=auto;html=1;exitX=0.5;exitY=1;exitDx=0;exitDy=0;entryX=1;entryY=0;entryDx=0;entryDy=0;" edge="1" parent="WIyWlLk6GJQsqaUBKTNV-1" source="VLeO9XLquMEbQgtOTkbF-1" target="bc9mQR_PdEr3sN50CIzt-6">
          <mxGeometry relative="1" as="geometry">
            <Array as="points">
              <mxPoint x="748" y="1070" />
              <mxPoint x="548" y="1070" />
            </Array>
          </mxGeometry>
        </mxCell>
        <mxCell id="VLeO9XLquMEbQgtOTkbF-1" value="total=total+food_ordered+ softdrinks_ordered" style="rounded=1;whiteSpace=wrap;html=1;" vertex="1" parent="WIyWlLk6GJQsqaUBKTNV-1">
          <mxGeometry x="680" y="780" width="135" height="60" as="geometry" />
        </mxCell>
        <mxCell id="VLeO9XLquMEbQgtOTkbF-4" style="edgeStyle=orthogonalEdgeStyle;rounded=0;orthogonalLoop=1;jettySize=auto;html=1;exitX=0.5;exitY=1;exitDx=0;exitDy=0;entryX=0.5;entryY=0;entryDx=0;entryDy=0;" edge="1" parent="WIyWlLk6GJQsqaUBKTNV-1" source="VLeO9XLquMEbQgtOTkbF-2" target="k8llUayksxSRVJIJTIAX-26">
          <mxGeometry relative="1" as="geometry" />
        </mxCell>
        <mxCell id="VLeO9XLquMEbQgtOTkbF-2" value="food=noodles 120 and fried chichen 150 and fried rice 180" style="rounded=1;whiteSpace=wrap;html=1;" vertex="1" parent="WIyWlLk6GJQsqaUBKTNV-1">
          <mxGeometry x="349" y="840" width="120" height="60" as="geometry" />
        </mxCell>
        <mxCell id="VLeO9XLquMEbQgtOTkbF-9" style="edgeStyle=orthogonalEdgeStyle;rounded=0;orthogonalLoop=1;jettySize=auto;html=1;exitX=0.5;exitY=1;exitDx=0;exitDy=0;entryX=0.5;entryY=0;entryDx=0;entryDy=0;" edge="1" parent="WIyWlLk6GJQsqaUBKTNV-1" source="VLeO9XLquMEbQgtOTkbF-7" target="bc9mQR_PdEr3sN50CIzt-0">
          <mxGeometry relative="1" as="geometry" />
        </mxCell>
        <mxCell id="VLeO9XLquMEbQgtOTkbF-7" value="food=noodles 120 and fried chichen 150 and fried rice 180" style="rounded=1;whiteSpace=wrap;html=1;" vertex="1" parent="WIyWlLk6GJQsqaUBKTNV-1">
          <mxGeometry x="544" y="810" width="120" height="60" as="geometry" />
        </mxCell>
        <mxCell id="VLeO9XLquMEbQgtOTkbF-10" value="no" style="text;html=1;strokeColor=none;fillColor=none;align=center;verticalAlign=middle;whiteSpace=wrap;rounded=0;" vertex="1" parent="WIyWlLk6GJQsqaUBKTNV-1">
          <mxGeometry x="404" y="1080" width="60" height="30" as="geometry" />
        </mxCell>
        <mxCell id="VLeO9XLquMEbQgtOTkbF-11" value="yes" style="text;html=1;strokeColor=none;fillColor=none;align=center;verticalAlign=middle;whiteSpace=wrap;rounded=0;" vertex="1" parent="WIyWlLk6GJQsqaUBKTNV-1">
          <mxGeometry x="570" y="1080" width="60" height="30" as="geometry" />
        </mxCell>
      </root>
    </mxGraphModel>
  </diagram>
</mxfile>
